<svg id="visual" viewBox="0 0 900 150" width="900" height="150" xmlns="http://www.w3.org/2000/svg" xmlns:xlink="http://www.w3.org/1999/xlink" version="1.1"><rect x="0" y="0" width="900" height="150" fill="#C62368"></rect><path d="M0 69L10 66.3C20 63.7 40 58.3 60 58.7C80 59 100 65 120 65.2C140 65.3 160 59.7 180 57.5C200 55.3 220 56.7 240 56.2C260 55.7 280 53.3 300 49.8C320 46.3 340 41.7 360 38.8C380 36 400 35 420 37.5C440 40 460 46 480 47.2C500 48.3 520 44.7 540 44.2C560 43.7 580 46.3 600 46.7C620 47 640 45 660 47C680 49 700 55 720 56.5C740 58 760 55 780 54.8C800 54.7 820 57.3 840 57.2C860 57 880 54 890 52.5L900 51L900 151L890 151C880 151 860 151 840 151C820 151 800 151 780 151C760 151 740 151 720 151C700 151 680 151 660 151C640 151 620 151 600 151C580 151 560 151 540 151C520 151 500 151 480 151C460 151 440 151 420 151C400 151 380 151 360 151C340 151 320 151 300 151C280 151 260 151 240 151C220 151 200 151 180 151C160 151 140 151 120 151C100 151 80 151 60 151C40 151 20 151 10 151L0 151Z" fill="#75baab"></path><path d="M0 86L10 86.2C20 86.3 40 86.7 60 87.5C80 88.3 100 89.7 120 86.2C140 82.7 160 74.3 180 72.8C200 71.3 220 76.7 240 80.7C260 84.7 280 87.3 300 87.7C320 88 340 86 360 81.5C380 77 400 70 420 71C440 72 460 81 480 82.8C500 84.7 520 79.3 540 79.2C560 79 580 84 600 82.2C620 80.3 640 71.7 660 71C680 70.3 700 77.7 720 79.2C740 80.7 760 76.3 780 72.7C800 69 820 66 840 67.8C860 69.7 880 76.3 890 79.7L900 83L900 151L890 151C880 151 860 151 840 151C820 151 800 151 780 151C760 151 740 151 720 151C700 151 680 151 660 151C640 151 620 151 600 151C580 151 560 151 540 151C520 151 500 151 480 151C460 151 440 151 420 151C400 151 380 151 360 151C340 151 320 151 300 151C280 151 260 151 240 151C220 151 200 151 180 151C160 151 140 151 120 151C100 151 80 151 60 151C40 151 20 151 10 151L0 151Z" fill="#00add0"></path><path d="M0 114L10 111C20 108 40 102 60 100.2C80 98.3 100 100.7 120 102.7C140 104.7 160 106.3 180 104.3C200 102.3 220 96.7 240 93.7C260 90.7 280 90.3 300 92.7C320 95 340 100 360 103C380 106 400 107 420 108.7C440 110.3 460 112.7 480 112C500 111.3 520 107.7 540 106.7C560 105.7 580 107.3 600 105.5C620 103.7 640 98.3 660 97.7C680 97 700 101 720 100.7C740 100.3 760 95.7 780 93.2C800 90.7 820 90.3 840 89.3C860 88.3 880 86.7 890 85.8L900 85L900 151L890 151C880 151 860 151 840 151C820 151 800 151 780 151C760 151 740 151 720 151C700 151 680 151 660 151C640 151 620 151 600 151C580 151 560 151 540 151C520 151 500 151 480 151C460 151 440 151 420 151C400 151 380 151 360 151C340 151 320 151 300 151C280 151 260 151 240 151C220 151 200 151 180 151C160 151 140 151 120 151C100 151 80 151 60 151C40 151 20 151 10 151L0 151Z" fill="#0093f2"></path><path d="M0 135L10 131.7C20 128.3 40 121.7 60 117.7C80 113.7 100 112.3 120 113.8C140 115.3 160 119.7 180 122.3C200 125 220 126 240 124.2C260 122.3 280 117.7 300 118.5C320 119.3 340 125.7 360 125.3C380 125 400 118 420 118C440 118 460 125 480 126.8C500 128.7 520 125.3 540 122.7C560 120 580 118 600 115.8C620 113.7 640 111.3 660 112.7C680 114 700 119 720 123.3C740 127.7 760 131.3 780 130.7C800 130 820 125 840 120.7C860 116.3 880 112.7 890 110.8L900 109L900 151L890 151C880 151 860 151 840 151C820 151 800 151 780 151C760 151 740 151 720 151C700 151 680 151 660 151C640 151 620 151 600 151C580 151 560 151 540 151C520 151 500 151 480 151C460 151 440 151 420 151C400 151 380 151 360 151C340 151 320 151 300 151C280 151 260 151 240 151C220 151 200 151 180 151C160 151 140 151 120 151C100 151 80 151 60 151C40 151 20 151 10 151L0 151Z" fill="#0066ff"></path></svg>