<svg id="visual" viewBox="0 0 900 150" width="900" height="150" xmlns="http://www.w3.org/2000/svg" xmlns:xlink="http://www.w3.org/1999/xlink" version="1.1"><rect x="0" y="0" width="900" height="150" fill="#001220"></rect><path d="M0 35L10 37.8C20 40.7 40 46.3 60 51.3C80 56.3 100 60.7 120 61.2C140 61.7 160 58.3 180 53.3C200 48.3 220 41.7 240 42.3C260 43 280 51 300 56C320 61 340 63 360 61.3C380 59.7 400 54.3 420 50.5C440 46.7 460 44.3 480 42.3C500 40.3 520 38.7 540 38.5C560 38.3 580 39.7 600 43.3C620 47 640 53 660 52.2C680 51.3 700 43.7 720 40.7C740 37.7 760 39.3 780 43.3C800 47.3 820 53.7 840 56.3C860 59 880 58 890 57.5L900 57L900 151L890 151C880 151 860 151 840 151C820 151 800 151 780 151C760 151 740 151 720 151C700 151 680 151 660 151C640 151 620 151 600 151C580 151 560 151 540 151C520 151 500 151 480 151C460 151 440 151 420 151C400 151 380 151 360 151C340 151 320 151 300 151C280 151 260 151 240 151C220 151 200 151 180 151C160 151 140 151 120 151C100 151 80 151 60 151C40 151 20 151 10 151L0 151Z" fill="#fa7268"></path><path d="M0 69L10 69.5C20 70 40 71 60 71.5C80 72 100 72 120 72.5C140 73 160 74 180 73.3C200 72.7 220 70.3 240 72.3C260 74.3 280 80.7 300 79.2C320 77.7 340 68.3 360 64.8C380 61.3 400 63.7 420 66.8C440 70 460 74 480 72.8C500 71.7 520 65.3 540 66.8C560 68.3 580 77.7 600 81.8C620 86 640 85 660 83.7C680 82.3 700 80.7 720 81.7C740 82.7 760 86.3 780 84C800 81.7 820 73.3 840 68.2C860 63 880 61 890 60L900 59L900 151L890 151C880 151 860 151 840 151C820 151 800 151 780 151C760 151 740 151 720 151C700 151 680 151 660 151C640 151 620 151 600 151C580 151 560 151 540 151C520 151 500 151 480 151C460 151 440 151 420 151C400 151 380 151 360 151C340 151 320 151 300 151C280 151 260 151 240 151C220 151 200 151 180 151C160 151 140 151 120 151C100 151 80 151 60 151C40 151 20 151 10 151L0 151Z" fill="#eb5967"></path><path d="M0 105L10 106C20 107 40 109 60 109.2C80 109.3 100 107.7 120 107.2C140 106.7 160 107.3 180 106.8C200 106.3 220 104.7 240 101C260 97.3 280 91.7 300 89.5C320 87.3 340 88.7 360 90.7C380 92.7 400 95.3 420 95.8C440 96.3 460 94.7 480 95.5C500 96.3 520 99.7 540 102.8C560 106 580 109 600 106.2C620 103.3 640 94.7 660 91.3C680 88 700 90 720 94.3C740 98.7 760 105.3 780 104C800 102.7 820 93.3 840 89.8C860 86.3 880 88.7 890 89.8L900 91L900 151L890 151C880 151 860 151 840 151C820 151 800 151 780 151C760 151 740 151 720 151C700 151 680 151 660 151C640 151 620 151 600 151C580 151 560 151 540 151C520 151 500 151 480 151C460 151 440 151 420 151C400 151 380 151 360 151C340 151 320 151 300 151C280 151 260 151 240 151C220 151 200 151 180 151C160 151 140 151 120 151C100 151 80 151 60 151C40 151 20 151 10 151L0 151Z" fill="#da3f67"></path><path d="M0 109L10 109C20 109 40 109 60 109.3C80 109.7 100 110.3 120 111.5C140 112.7 160 114.3 180 114.3C200 114.3 220 112.7 240 115.3C260 118 280 125 300 126.5C320 128 340 124 360 121.2C380 118.3 400 116.7 420 118.5C440 120.3 460 125.7 480 127C500 128.3 520 125.7 540 122.2C560 118.7 580 114.3 600 114C620 113.7 640 117.3 660 121.5C680 125.7 700 130.3 720 129.7C740 129 760 123 780 122.5C800 122 820 127 840 129.2C860 131.3 880 130.7 890 130.3L900 130L900 151L890 151C880 151 860 151 840 151C820 151 800 151 780 151C760 151 740 151 720 151C700 151 680 151 660 151C640 151 620 151 600 151C580 151 560 151 540 151C520 151 500 151 480 151C460 151 440 151 420 151C400 151 380 151 360 151C340 151 320 151 300 151C280 151 260 151 240 151C220 151 200 151 180 151C160 151 140 151 120 151C100 151 80 151 60 151C40 151 20 151 10 151L0 151Z" fill="#c62368"></path></svg>